<?xml version="1.0" encoding="UTF-8"?>
<svg width="800" height="500" viewBox="0 0 800 500" fill="none" xmlns="http://www.w3.org/2000/svg">
  <defs>
    <filter id="softShadow" x="-20%" y="-20%" width="140%" height="140%">
      <feGaussianBlur in="SourceAlpha" stdDeviation="12"/>
      <feOffset dx="0" dy="6" result="offsetblur"/>
      <feComponentTransfer>
        <feFuncA type="linear" slope="0.25"/>
      </feComponentTransfer>
      <feMerge>
        <feMergeNode/>
        <feMergeNode in="SourceGraphic"/>
      </feMerge>
    </filter>
    <linearGradient id="cloudGrad" x1="0" y1="0" x2="0" y2="1">
      <stop offset="0%" stop-color="#FFFFFF"/>
      <stop offset="100%" stop-color="#F8FBFF"/>
    </linearGradient>
  </defs>
  <g filter="url(#softShadow)">
    <path fill="url(#cloudGrad)" d="M546 168c-10-59-63-105-126-105-49 0-92 27-113 66-12-6-26-9-41-9-44 0-81 30-92 71-49 3-88 42-88 92 0 51 41 92 92 92h408c57 0 104-46 104-104s-47-103-104-103c-14 0-28 3-40 9z"/>
    <ellipse cx="280" cy="210" rx="80" ry="60" fill="#FFFFFF"/>
    <ellipse cx="360" cy="200" rx="100" ry="70" fill="#FFFFFF"/>
    <ellipse cx="440" cy="210" rx="110" ry="75" fill="#FFFFFF"/>
    <ellipse cx="520" cy="230" rx="90" ry="65" fill="#FFFFFF"/>
  </g>
</svg>
